<svg width="20" height="21" viewBox="0 0 20 21" fill="none" xmlns="http://www.w3.org/2000/svg">
<g clip-path="url(#clip0_2219_1238)">
<path d="M17.2912 6.25745C17.1746 5.79912 16.7162 5.53245 16.2579 5.63245C14.2746 6.07412 12.0662 6.26579 9.99957 6.26579C7.93291 6.26579 5.72457 6.07412 3.74124 5.63245C3.28291 5.53245 2.82457 5.79912 2.70791 6.25745C2.59124 6.72412 2.87457 7.19912 3.33291 7.30745C4.67457 7.60745 6.12457 7.81579 7.49957 7.93245V17.9325C7.49957 18.3908 7.87457 18.7658 8.33291 18.7658C8.79124 18.7658 9.16624 18.3908 9.16624 17.9325V13.7658H10.8329V17.9325C10.8329 18.3908 11.2079 18.7658 11.6662 18.7658C12.1246 18.7658 12.4996 18.3908 12.4996 17.9325V7.93245C13.8746 7.81579 15.3246 7.60745 16.6579 7.30745C17.1246 7.19912 17.4079 6.72412 17.2912 6.25745ZM9.99957 5.43245C10.9162 5.43245 11.6662 4.68245 11.6662 3.76579C11.6662 2.84912 10.9162 2.09912 9.99957 2.09912C9.08291 2.09912 8.33291 2.84912 8.33291 3.76579C8.33291 4.68245 9.08291 5.43245 9.99957 5.43245Z" fill="url(#paint0_linear_2219_1238)"/>
</g>
<defs>
<linearGradient id="paint0_linear_2219_1238" x1="9.99956" y1="2.09912" x2="9.99956" y2="18.7658" gradientUnits="userSpaceOnUse">
<stop stop-color="#205FE1"/>
<stop offset="1" stop-color="#0DA5FA"/>
</linearGradient>
<clipPath id="clip0_2219_1238">
<rect width="20" height="20" fill="white" transform="translate(0 0.432617)"/>
</clipPath>
</defs>
</svg>
