<svg width="102" height="24" viewBox="0 0 102 24" fill="none" xmlns="http://www.w3.org/2000/svg">
<g clip-path="url(#clip0_2219_1037)">
<path d="M16.2649 4.86567C16.2649 6.3098 15.0939 7.48003 13.6485 7.48003C12.2052 7.48003 11.0337 6.3098 11.0337 4.86567C11.0337 3.42109 12.2052 2.25 13.6485 2.25C15.0939 2.25 16.2649 3.42109 16.2649 4.86567Z" fill="#335880"/>
<path d="M10.7024 21.5434C10.7161 21.3768 10.5445 21.3255 10.0897 21.284C6.59656 20.9665 4.177 19.9857 4.177 19.0096C4.177 18.1577 6.08048 17.4153 8.88804 17.031C8.96348 17.0195 9.10358 17.0245 9.11643 16.9365C9.12765 16.8487 8.89133 16.6498 8.75123 16.5933C8.61034 16.5374 8.38567 16.4984 8.23643 16.5137C3.89599 16.9619 0.942965 17.9405 0.946292 19.0697C0.950426 20.2859 4.46889 21.3078 9.36147 21.6654C9.73983 21.694 10.6821 21.7898 10.7024 21.5434Z" fill="#335880"/>
<path d="M19.4135 16.7656C19.4061 16.7639 19.3679 16.763 19.3311 16.7779C19.2966 16.7937 19.1147 17.0101 19.1785 17.0242C19.2556 17.0395 19.3095 17.0507 19.329 17.0548C21.3282 17.4652 22.5005 17.8846 22.5005 18.5819C22.5005 19.3322 21.0359 20.0258 18.7652 20.4365C18.7424 20.4397 18.6914 20.4481 18.686 20.4208C18.6827 20.3918 18.7304 20.3826 18.7498 20.3752C19.787 20.0116 20.4092 19.5648 20.4092 19.0628C20.4092 18.3428 19.4458 17.8093 17.1369 17.3608C16.1538 17.1713 14.969 16.6619 14.9118 15.1124C14.9118 14.4939 14.9665 13.9998 15.2712 13.4883C15.5767 12.9768 16.1223 12.0536 16.1223 11.0384C16.1223 9.38787 14.7708 8.35314 13.4535 8.3702C12.1361 8.38592 10.8909 9.38787 10.8909 11.0384C10.8909 12.0764 11.7295 13.1836 11.9014 13.5264C12.0872 13.8916 12.2609 14.3646 12.2609 15.1485C12.2609 16.4095 10.6024 17.1974 9.82473 17.3977C8.39628 17.7653 6.74564 18.1359 6.74609 19.0628C6.74609 19.6737 7.25095 20.1122 8.73705 20.4771C9.18805 20.5778 9.96611 20.7283 10.5402 20.7822C11.2001 20.8443 12.0835 20.914 13.2595 20.8084C13.7697 20.7624 14.0404 20.7619 14.0586 20.9426C14.0781 21.1429 13.7374 21.2226 13.6051 21.2498C13.0248 21.3651 12.3322 21.4103 12.3351 21.5499C12.3388 21.7394 12.7674 21.7488 13.3474 21.7498C18.4426 21.7672 25.9516 20.5888 25.9458 19.0554C25.9426 17.9826 23.4165 17.2136 19.4135 16.7656Z" fill="#335880"/>
<path d="M33.4998 13.554C33.1988 13.554 32.9293 13.4875 32.6913 13.3545C32.4603 13.2145 32.2783 13.029 32.1453 12.798C32.0123 12.567 31.9458 12.301 31.9458 12C31.9458 11.699 32.0123 11.433 32.1453 11.202C32.2783 10.964 32.4603 10.7785 32.6913 10.6455C32.9293 10.5125 33.1988 10.446 33.4998 10.446C33.8008 10.446 34.0668 10.5125 34.2978 10.6455C34.5358 10.7785 34.7213 10.964 34.8543 11.202C34.9873 11.433 35.0538 11.699 35.0538 12C35.0538 12.301 34.9873 12.567 34.8543 12.798C34.7213 13.029 34.5358 13.2145 34.2978 13.3545C34.0668 13.4875 33.8008 13.554 33.4998 13.554Z" fill="#A3B7CC"/>
<circle cx="89.054" cy="12" r="11.0625" fill="url(#paint0_linear_2219_1037)" stroke="white" stroke-width="1.875"/>
<circle cx="80.054" cy="12" r="11.0625" fill="url(#paint1_linear_2219_1037)" stroke="white" stroke-width="1.875"/>
<circle cx="71.054" cy="12" r="11.0625" fill="url(#paint2_linear_2219_1037)" stroke="white" stroke-width="1.875"/>
<circle cx="62.054" cy="12" r="11.0625" fill="url(#paint3_linear_2219_1037)" stroke="white" stroke-width="1.875"/>
<circle cx="53.054" cy="12" r="11.0625" fill="url(#paint4_linear_2219_1037)" stroke="white" stroke-width="1.875"/>
<g clip-path="url(#clip1_2219_1037)">
<path d="M58.9466 8.62587C58.8523 8.25546 58.4819 8.03995 58.1115 8.12077C56.5086 8.47771 54.7239 8.63261 53.0537 8.63261C51.3835 8.63261 49.5988 8.47771 47.996 8.12077C47.6256 8.03995 47.2552 8.25546 47.1609 8.62587C47.0666 9.00301 47.2956 9.38689 47.666 9.47444C48.7503 9.71689 49.9221 9.88526 51.0333 9.97954V18.0612C51.0333 18.4316 51.3364 18.7346 51.7068 18.7346C52.0772 18.7346 52.3803 18.4316 52.3803 18.0612V14.6938H53.7272V18.0612C53.7272 18.4316 54.0303 18.7346 54.4007 18.7346C54.7711 18.7346 55.0741 18.4316 55.0741 18.0612V9.97954C56.1854 9.88526 57.3572 9.71689 58.4348 9.47444C58.8119 9.38689 59.0409 9.00301 58.9466 8.62587ZM53.0537 7.95914C53.7945 7.95914 54.4007 7.35301 54.4007 6.6122C54.4007 5.87138 53.7945 5.26526 53.0537 5.26526C52.3129 5.26526 51.7068 5.87138 51.7068 6.6122C51.7068 7.35301 52.3129 7.95914 53.0537 7.95914Z" fill="white"/>
</g>
</g>
<defs>
<linearGradient id="paint0_linear_2219_1037" x1="89.054" y1="0" x2="89.054" y2="24" gradientUnits="userSpaceOnUse">
<stop stop-color="#F4900C"/>
<stop offset="1" stop-color="#F4C10C"/>
</linearGradient>
<linearGradient id="paint1_linear_2219_1037" x1="80.054" y1="0" x2="80.054" y2="24" gradientUnits="userSpaceOnUse">
<stop stop-color="#CB3A8C"/>
<stop offset="1" stop-color="#FF79C5"/>
</linearGradient>
<linearGradient id="paint2_linear_2219_1037" x1="64.4482" y1="0" x2="64.4482" y2="24" gradientUnits="userSpaceOnUse">
<stop stop-color="#7536C8"/>
<stop offset="1" stop-color="#CAA5FC"/>
</linearGradient>
<linearGradient id="paint3_linear_2219_1037" x1="62.054" y1="0" x2="62.054" y2="24" gradientUnits="userSpaceOnUse">
<stop stop-color="#157D59"/>
<stop offset="1" stop-color="#2FB083"/>
</linearGradient>
<linearGradient id="paint4_linear_2219_1037" x1="53.054" y1="0" x2="53.054" y2="24" gradientUnits="userSpaceOnUse">
<stop stop-color="#205FE1"/>
<stop offset="1" stop-color="#0DA5FA"/>
</linearGradient>
<clipPath id="clip0_2219_1037">
<rect width="100.107" height="24" fill="white" transform="translate(0.946289)"/>
</clipPath>
<clipPath id="clip1_2219_1037">
<rect width="16.1633" height="16.1633" fill="white" transform="translate(44.9722 3.91833)"/>
</clipPath>
</defs>
</svg>
